<?xml version="1.0" encoding="UTF-8"?>
<svg xmlns="http://www.w3.org/2000/svg" xmlns:xlink="http://www.w3.org/1999/xlink" width="32px" height="32px" viewBox="0 0 32 32" version="1.1">
<g id="surface1">
<rect width="100%" height="100%" fill="white" />
<path fill="#ff9900" stroke="#ff9900" style=" stroke:none;fill-rule:nonzero;fill:rgb(0%,0%,0%);fill-opacity:1;" d="M 4.949219 0.496094 C 4.890625 0.773438 4.761719 1.394531 4.660156 1.878906 C 4.558594 2.367188 4.441406 2.917969 4.398438 3.109375 C 4.359375 3.300781 4.238281 3.878906 4.128906 4.394531 C 4.019531 4.914062 3.871094 5.609375 3.800781 5.949219 C 3.671875 6.554688 3.671875 6.5625 3.578125 6.644531 C 3.183594 6.992188 2.332031 7.925781 1.941406 8.445312 C 0.609375 10.195312 -0.046875 12.011719 0.0117188 13.765625 C 0.046875 14.925781 0.335938 15.9375 0.921875 16.953125 C 2.410156 19.527344 5.464844 21.265625 9.011719 21.550781 C 9.539062 21.589844 10.949219 21.566406 11.425781 21.507812 C 11.609375 21.484375 11.765625 21.46875 11.769531 21.472656 C 11.78125 21.488281 11.679688 22.871094 11.601562 23.832031 C 11.324219 27.015625 10.976562 29.183594 10.59375 30.058594 C 10.535156 30.199219 10.445312 30.34375 10.363281 30.445312 C 10.183594 30.648438 10.175781 30.746094 10.328125 30.933594 C 10.773438 31.492188 13.070312 32.042969 14.710938 31.976562 C 15.539062 31.945312 16.085938 31.820312 16.550781 31.558594 C 16.875 31.375 17.28125 30.90625 17.453125 30.523438 L 17.539062 30.339844 L 17.675781 30.339844 C 17.878906 30.339844 18.414062 30.261719 18.675781 30.195312 C 19.945312 29.867188 21.464844 28.820312 22.652344 27.449219 C 23.679688 26.261719 24.183594 25.054688 24.390625 23.296875 C 24.441406 22.890625 24.449219 21.992188 24.425781 19.855469 C 24.414062 18.9375 24.421875 18.746094 24.457031 18.492188 C 24.570312 17.710938 24.78125 17.25 25.238281 16.796875 C 25.679688 16.351562 26.085938 16.039062 26.425781 15.882812 C 27.175781 15.535156 27.898438 15.804688 29.011719 16.839844 C 30.21875 17.964844 30.726562 18.769531 30.726562 19.539062 C 30.722656 19.992188 30.59375 20.316406 30.253906 20.710938 C 29.859375 21.171875 29.222656 21.601562 28.375 21.976562 C 27.71875 22.269531 27.546875 22.363281 27.449219 22.472656 C 27.335938 22.597656 27.324219 22.679688 27.414062 22.757812 C 27.523438 22.859375 27.710938 22.890625 28.164062 22.890625 C 29.015625 22.882812 30.085938 22.621094 30.75 22.246094 C 31.382812 21.894531 31.789062 21.257812 31.953125 20.375 C 32.003906 20.109375 31.996094 19.386719 31.941406 19.089844 C 31.671875 17.65625 30.78125 16.375 29.324219 15.316406 C 28.984375 15.070312 28.375 14.722656 28.078125 14.605469 C 27.128906 14.234375 26.335938 14.265625 25.5625 14.703125 C 24.671875 15.210938 23.90625 16.300781 23.402344 17.78125 C 23.226562 18.300781 23.203125 18.515625 23.246094 19.472656 C 23.304688 20.90625 23.277344 21.910156 23.152344 22.746094 C 22.960938 24.039062 22.523438 25.339844 21.984375 26.210938 C 21.796875 26.511719 21.332031 27.070312 21.039062 27.34375 C 20.253906 28.078125 19.269531 28.617188 17.996094 29.007812 C 17.71875 29.09375 17.726562 29.097656 17.726562 28.90625 C 17.726562 28.816406 17.699219 28.585938 17.664062 28.390625 C 17.527344 27.605469 17.195312 26.691406 16.660156 25.632812 C 16.371094 25.058594 16.351562 25.023438 15.472656 23.484375 C 15.050781 22.746094 14.648438 22.023438 14.578125 21.878906 L 14.449219 21.621094 L 14.59375 21.597656 C 14.671875 21.589844 14.929688 21.566406 15.164062 21.546875 C 17.535156 21.371094 19.773438 20.484375 21.386719 19.078125 C 21.871094 18.660156 22.460938 18 22.808594 17.5 C 23.710938 16.183594 24.199219 14.644531 24.199219 13.097656 C 24.199219 11.394531 23.671875 9.765625 22.613281 8.242188 C 22.375 7.898438 21.738281 7.132812 21.453125 6.847656 L 21.324219 6.714844 L 20.765625 3.414062 C 20.460938 1.601562 20.203125 0.113281 20.199219 0.105469 C 20.191406 0.09375 19.714844 1.082031 19.140625 2.292969 C 18.5625 3.503906 18.089844 4.5 18.085938 4.507812 C 18.082031 4.511719 17.921875 4.457031 17.726562 4.382812 C 17.050781 4.132812 16.261719 3.9375 15.523438 3.835938 C 14.984375 3.761719 14.441406 3.730469 13.5625 3.730469 C 12.15625 3.730469 10.816406 3.84375 8.027344 4.195312 C 7.511719 4.261719 7.289062 4.277344 7.277344 4.253906 C 7.269531 4.238281 6.785156 3.273438 6.199219 2.113281 C 5.484375 0.683594 5.125 0.00390625 5.09375 0 C 5.0625 0 5.03125 0.101562 4.949219 0.496094 Z M 4.949219 0.496094 "/>
</g>
</svg>
